<svg xmlns="http://www.w3.org/2000/svg" viewBox="0 0 356.01 359.45"><defs><style>.cls-1{fill:#262734;}.cls-1,.cls-2{opacity:0.8;}.cls-2{fill:#262734;}</style></defs><g id="Layer_2" data-name="Layer 2"><g id="Layer_1-2" data-name="Layer 1"><path class="cls-1" d="M355.86,169.26c.4,0,0-10-.89-14.94a60,60,0,0,0-3.66-11.64c-.72-1.82-1.33-3.59-2.09-5.18s-1.45-3.08-2.1-4.4a36.3,36.3,0,0,0-3.26-5.58c-.74-1-1.05-1.08-.72.1a39.13,39.13,0,0,0,.4,4.16c.17,1.67.43,3.59.76,5.68.15,1,.38,2.13.52,3.28s.31,2.33.48,3.56.38,2.47.57,3.75.31,2.61.48,3.94.34,2.69.52,4.07.26,2.77.41,4.17.28,2.8.42,4.21.19,2.83.3,4.23.22,2.81.32,4.2.11,2.78.19,4.14c.12,2.72.33,5.37.34,7.9a13.36,13.36,0,0,0,1.74,7.11c1.07,1.73,2.43,2,3.32-1.31.19-2.42.33-5.05.45-7.66.09-1.31,0-2.6,0-3.87s0-2.5,0-3.66c0-2.35-.08-4.43-.07-6.06s0-2.85.39-3.26C354.69,166.2,355.05,169.29,355.86,169.26Z"/><path class="cls-2" d="M301.41,304.51c-21.1,36.37-87.48,55.19-127.73,54.28-9.46-1.22-18.46-.17-28,.66A169.3,169.3,0,0,1,59,315.87c-59.8-54.42-67.25-152-25.79-214.59,6.57-10,15.39-20,22-29.93a244.26,244.26,0,0,0-27.69,38,2.09,2.09,0,0,0,.33-.24c-52.3,78.07-16.23,195.14,68,235.59-121.19-60.34-126.25-218.95-21.71-298C109.7,22.33,146.35-2.37,191.9.18c15,1.3,27.06,7.41,41.93,9.59,22,2.26,42.94,14,58.32,27.92,15,13.82,35.34,29.73,40,50,.5,2.16-1.28,2.17-1.34,3.56.21,3.75,3.74,8.07,5.43,12.18-3.05-2.9-11.55-15.76-14.23-15.74,3.59,7.58,9.59,17.85,11.71,25.36C325.3,97.93,313.2,84.59,301.1,72.8,288.8,64.2,275.79,55.64,263.64,47c.38.92.11,1.33-.57,1.42-7.35-4.94-16.09-8.56-25-8.63-6.87-3.53-16-8.17-23-5-8.35-2.55-16.52-3.45-25.31-1.62-10.2.64-20.59,1.25-30.66,3-16.57,2.87-33.45,2.24-49.23,9-1.75-.89,5.11-7.77-3-3.43-14.21,8.4-26.66,19.82-37.39,32-8.17,6-15.2,11.86-21.16,19.66-1.91,7.68-8.16,14.2-12.49,20.73a79.07,79.07,0,0,0-11.57,28.34c-5.49,19.41-9.65,40-8.92,60.37a176.08,176.08,0,0,1,4.51,20.38c.87,15.85,8.14,31.2,10.78,46.73.58-2.41,0-4.91-.69-7.56,5.58,14.62,14.17,19,19.74,28.68,1.79,2.95,1.42,2.4,3.49,4,12.49,13.44,24.83,30.05,41,39.26,1.87,1.5-1.88-1.5-4.45-4.1-7.89-8.47,12,3.26,14.49,4.21,9.5,4.64,19.58,9.1,29.65,11.88,52.87,13.39,116.25,6.5,156.21-33.82C306,295.17,308.05,300.8,301.41,304.51Z"/></g></g></svg>