<svg xmlns="http://www.w3.org/2000/svg" width="107.269" height="124.886" viewBox="0 0 107.269 124.886">
  <g id="Group_87" data-name="Group 87" transform="translate(-248 -34)">
    <g id="Group_86" data-name="Group 86" transform="translate(-50 -392)">
      <path id="Path_225" data-name="Path 225" d="M102.544,220.832c7.707-.1,12.559-4.179,15.6-7.789,3.14-3.721,3.128-8.613,5.423-12.252a11.852,11.852,0,0,1,4.472-3.894s-2.759-6.363-6.66-5.509c-3.539.776-3.887,9.095-4.757,12.062-1.142,3.893-3.709,10.961-15.032,10.638-6.66-.19-9.093-5.931-7.992-16.336,1.427-13.486,12.467-23.658,16.745-26.594,4.567-3.134,6.85-1.519,6.85-1.519s-1.362,2.673-.761,4.274c.571,1.52,1.419,3.039,3.71,3.039,2,0,3.409-2.651,3.521-4.179.285-3.893-1.9-4.558-1.9-4.558-1.142.57-2.751,2.934-2,3.514,2.093,1.615.183,2.7-.475,1.8-1.332-1.8,1.771-6.223,2.569-7.218,2.284-2.85,7.492-6.343,7.231-8.168-.285-1.994-3.521-2.089-3.521-2.089a3.573,3.573,0,0,1,0,1.9c-.348,1.276-3.045,3.229-4.567,5.318a31.572,31.572,0,0,0-1.808,3.134s-.666-1.424-4.472-1.044c-14.353,1.433-30.777,20.776-28.733,42.455C86.75,215.893,92.172,220.959,102.544,220.832Z" transform="translate(212.185 269.943)" fill="#fcfdfd"/>
      <path id="Path_226" data-name="Path 226" d="M175.606,202.671c-.158.855-.836,7.36.285,10.733.681,2.049,2.885,3.02,5.328,2.944a8.749,8.749,0,0,0,5.233-2.185,3.171,3.171,0,0,0,2.569,1.52c1.9.039,4.191-2.367,4.967-3.394-.787,3.168-1.763,6.794-2.588,9.71-.155.546.2,1.117.666,1.092a6.679,6.679,0,0,0,3.2-1.033c.475-.451.221-3.055.5-5.256.122-.971.679-3.588.679-3.588a22.361,22.361,0,0,0,3.972-.19c3.162-.487,7.029-4.216,7.445-9.45.238-2.992-2-6.981-4.853-6.933a4.676,4.676,0,0,0-3.187,1.329s.123-1.141.143-1.282c.047-.333-.1-.617-.571-.522a17.358,17.358,0,0,0-1.618.76.828.828,0,0,0-.38.427c-1.606,7.224-1.706,7.2-2.284,10.068-.152.753-.349,1.643-.576,2.612-1.561,2.272-4.731,3.978-5.259,2.738-.466-1.1.1-4.9.381-6.2a57.8,57.8,0,0,1,2.41-7.029c.191-.445-.476-.76-.761-.76a14.952,14.952,0,0,0-3.964,1.329.959.959,0,0,0-.285.7,43.076,43.076,0,0,1-.571,5.889c-.554,2.372-1.776,5.287-5.074,5.382-1.808.052-2.607-2.473-2.474-4.654a19.255,19.255,0,0,1,1.079-5.73c.158-.349-.669-.79-2.03-.633a4.532,4.532,0,0,0-1.744.538A1.493,1.493,0,0,0,175.606,202.671Zm24.142-1.163a3.091,3.091,0,0,1,2.164-.76c1.4.047,2.594.851,1.879,3.965-1.047,4.559-4.236,4.95-5.827,4.844C197.608,209.534,199.392,201.912,199.749,201.508Z" transform="translate(165.145 248.826)" fill="#fcfdfd"/>
      <path id="Path_227" data-name="Path 227" d="M239.894,214.808a14.783,14.783,0,0,0,3.643-1.159c.3-.154.338-.618.357-1.009a16.154,16.154,0,0,1-.236-3.91c.105-.973.743-3.435.743-3.435a6.375,6.375,0,0,0,3.679.7c3.163-.488,7.257-5.016,7.548-10.258.191-3.419-.888-7.535-4.376-7.219a7.153,7.153,0,0,0-3.536,1.472s.218-1.394.238-1.536c.048-.332-.095-.617-.57-.522-.148.029-1.824.744-1.966.839a.828.828,0,0,0-.381.428c-1.605,7.224-1.424,7.674-2,10.542-.711,3.534-2.5,9.349-3.807,13.978C239.073,214.262,239.43,214.836,239.894,214.808Zm7.75-21.283a4.108,4.108,0,0,1,2.466-1.084c1.4.047,3.051,1.394,2.283,4.5-1.332,5.382-4.82,5.509-6.533,4.638C245.541,201.412,247.287,193.929,247.643,193.525Z" transform="translate(131.521 253.164)" fill="#fcfdfd"/>
      <path id="Path_228" data-name="Path 228" d="M292.234,194.033c-.285,0-.924.423-1.728.522-.762.1-1.809,0-1.951-.569s2.046-8.406.809-11.873a6.223,6.223,0,0,0-5.66-3.989c-2.759,0-5.287,2.224-6.01,2.929-1.04,1.013-1.287,1.695-.333,2.786.748.855,1.2,1.236,2.341.371.485-.367,1.907-1.975,3.706-2.352,1.489-.311,2.691.4,2.736,1.694.07,1.972-4.047,3.253-5.3,3.839-2.225,1.041-5.138,3.8-4.991,6.99.127,2.754,1.443,4.12,4,4.163a10.7,10.7,0,0,0,6.469-2.375c.191-.047,1.6,1.473,3.489,1.33a9.591,9.591,0,0,0,2.917-.934.508.508,0,0,0,.3-.538,6.8,6.8,0,0,0-.269-1.567C292.615,194.128,292.52,194.033,292.234,194.033Zm-7.2-.313a4.237,4.237,0,0,1-3.671,1.8,1.413,1.413,0,0,1-1.546-.867,4.319,4.319,0,0,1,1.615-3.939,15.184,15.184,0,0,1,4.364-2.42A11.489,11.489,0,0,1,285.036,193.719Z" transform="translate(112.242 258.319)" fill="#fcfdfd"/>
      <path id="Path_229" data-name="Path 229" d="M176.113,284.223c1.765-3.739.969-5.809.079-5.064a36.727,36.727,0,0,1-10.085,5.319c-3.556,1-12.109,2.478-21.216,5.508a111.661,111.661,0,0,0-16.175,7.408s2.52-16.993,2.854-19c.475-2.849,3.045-12.631,5.138-15.766.761-1.14,2.284-2.944,2.284-2.944-.571-1.14-3.33-2.28-5.423-1.8-1.784.4-3.519,4.179-5.138,8.643-3.814,10.515-9.633,17.523-18.409,19.275-9.02,1.8-16.061-2.125-17.366-5.163-.554-1.292-1.166-5.1-1.711-5.279-.657-.221-2.76,2.469-2.569,4.274,2.378,6.458,8.761,9.028,16.566,8.842,8.752-.207,14.617-3.711,17.412-7.088a74.2,74.2,0,0,0,4.84-6.883s.191,7.313.191,10.733c0,4.089-.951,13.867-.951,13.867-12.464,8.928-18.268,17.1-19.409,24.789-.711,4.791.476,9.118,4.852,10.353,4.176,1.179,8.658-1.52,11.132-6.363,3.5-6.856,5.138-26.594,5.138-26.594l-2.188,1.614c-.285,3.895-3.045,15.861-6.184,19.471a6,6,0,0,1-6.375,1.995c-1.2-.416-2.191-2.4-1.541-5.29.693-3.078,5.441-9.432,9.343-13.326,5.566-5.556,13.891-10.448,21.312-13.2,5.914-2.2,15.6-4.749,19.409-5.034,3.511-.264,5.9.589,7.707.664A7,7,0,0,0,176.113,284.223Z" transform="translate(210.845 216.364)" fill="#fcfdfd"/>
      <path id="Path_230" data-name="Path 230" d="M200.561,263.117c-3.172,0-7.316,6.983-8.141,11.23-1.236,6.364-.173,10.685,5.192,11.944,3.9.916,8.975-3.735,10.592-9.751.682-2.537,1.085-5.686.634-6.11a3.563,3.563,0,0,0-2.188-.1c-.222.317-.571,3.894-2.378,7.218-1.381,2.538-4,5.983-6.374,4.939-1.91-.839-2.442-4.992-1.633-7.869a11.231,11.231,0,0,1,4.815-6.812,4.083,4.083,0,0,1-.52-1.8C200.592,264.842,200.973,263.117,200.561,263.117Z" transform="translate(156.364 213.55)" fill="#fcfdfd"/>
      <path id="Path_231" data-name="Path 231" d="M254.063,235.276c-.951.19-2.513,2.942-2.954,4.828s-1.6,8.639-1.939,9.959c-.589,2.283-2.113,5.118-4.557,5.221-2.664.112-3.734-1.314-3.375-3.976a35.294,35.294,0,0,1,4.136-10.714c.576-.756.239-2.161-.381-2.343a6.838,6.838,0,0,0-4.186.505c-.571.507-1.268,3.229-1.649,3.99a48.251,48.251,0,0,0-1.939,6.555c-.317,1.773-.488,4.395-.662,5.159-.951,4.179-4.189,8.4-7.865,8.548-3.172.126-4.694-1.583-4.377-4.559a15.728,15.728,0,0,1,.824-3.482,20.5,20.5,0,0,0,5.567-2,9.286,9.286,0,0,0,4.781-6.881c.277-2.489-1.628-4.945-3.877-4.859-4.061.155-9.134,6.585-9.895,10.258,0,0,2.854-.127,3.615-.76s1.185-2.2,1.9-3.356c.494-.8,2.034-2.5,3.045-2.406a1.923,1.923,0,0,1,1.458,2.849c-.888,1.837-4.389,3.985-6.216,4.369-2.411.507-5.2.887-5.328.444-.174-.609-1.489-4.542-3.678-5.382a2.915,2.915,0,0,0-3.806,1.329c-.626,1.389,0,3.293,1.015,4.623,1.477,1.935,6.343,1.52,7.231,1.837-.317,1.772-1.2,5.064-.253,7.787a5.726,5.726,0,0,0,5.645,3.736,9.881,9.881,0,0,0,7.8-3.99c1.586-2.089,2.727-4.749,2.981-4.811s1.54,2.121,3.679,2.595a9.367,9.367,0,0,0,6.6-1.266c.761-.633-3.888,20.054-5.2,21.592-1.458,1.71-6.342,6.078-7.992,10-1.405,3.345-2.162,8.943.507,9.815,3.488,1.14,5.939-1.518,7.1-4.749,1.142-3.167,1.713-8.612,2.22-12.031.664-4.471,4.571-20,6.026-25.01.7-2.406,3.088-12.262,4.471-15.418.646-1.476,3.267-4.754,3.325-5.326C257.927,237.328,254.969,235.1,254.063,235.276Zm-36.852,17.73c-.19.189-1.205-.159-1.649-.6-.35-.349-.6-1.076-.38-1.424s.759-.249,1.173.1C216.926,251.549,217.4,252.815,217.211,253.006Z" transform="translate(145.581 228.22)" fill="#fcfdfd"/>
    </g>
  </g>
</svg>
