<svg xmlns="http://www.w3.org/2000/svg" width="182.332" height="88.477" viewBox="0 0 182.332 88.477">
  <g id="Group_119" data-name="Group 119" transform="translate(38.819 -1100.396)">
    <g id="Group_117" data-name="Group 117" transform="translate(11.456 1114.67)">
      <path id="Path_456" data-name="Path 456" d="M25.353,1131.868a12.968,12.968,0,0,1,3.71-9.482,12.462,12.462,0,0,1,9.257-3.77,11.271,11.271,0,0,1,6.91,2.122,6.116,6.116,0,0,1,2.856,4.967,2.4,2.4,0,0,1-.794,1.861,2.9,2.9,0,0,1-2.027.723,3.183,3.183,0,0,1-2.015-.592,6.83,6.83,0,0,1-1.612-2.607,6.047,6.047,0,0,0-1.731-2.477,4.052,4.052,0,0,0-2.465-.7,5.277,5.277,0,0,0-4.468,2.121,9.679,9.679,0,0,0-1.6,5.938,10.956,10.956,0,0,0,2.276,7.183,7.209,7.209,0,0,0,5.832,2.773,8.016,8.016,0,0,0,2.335-.332,7.5,7.5,0,0,0,2.05-.972q.331-.236.948-.711a3.829,3.829,0,0,1,2.063-1.043,1.024,1.024,0,0,1,1.114,1.114,3.082,3.082,0,0,1-.521,1.493,6.237,6.237,0,0,1-1.328,1.564,13.461,13.461,0,0,1-4.042,2.513,12.617,12.617,0,0,1-4.564.807,11.632,11.632,0,0,1-8.688-3.593A12.253,12.253,0,0,1,25.353,1131.868Z" transform="translate(-25.353 -1118.616)" fill="#2a5172"/>
      <path id="Path_457" data-name="Path 457" d="M74.776,1143.114v-1.7c0-.061-.012-.1-.034-.115a.191.191,0,0,0-.1-.023q-.276,0-.849.6c-.138.153-.245.268-.322.344a7.252,7.252,0,0,1-2.571,1.746,8.656,8.656,0,0,1-3.214.574,8.473,8.473,0,0,1-3.387-.678,7.066,7.066,0,0,1-2.629-1.917,8.026,8.026,0,0,1-1.6-3.284,34.98,34.98,0,0,1-.471-7.072q0-.482.023-1.607t.024-1.768v-.483a6.918,6.918,0,0,0-.276-2.514,1.981,1.981,0,0,0-1.149-.862,8.907,8.907,0,0,0-.941-.3q-1.355-.367-1.355-1.217a1.252,1.252,0,0,1,.482-1,7.985,7.985,0,0,1,2.158-.975,31.3,31.3,0,0,1,3.238-.884,12.782,12.782,0,0,1,2.549-.333,1,1,0,0,1,.93.482,3.134,3.134,0,0,1,.287,1.54q0,.138-.045.941-.23,4.409-.23,8.931,0,4.891,1.01,6.751a3.6,3.6,0,0,0,3.445,1.86,4.065,4.065,0,0,0,3.938-2.411q1.182-2.41,1.182-8.265v-1.838a6.927,6.927,0,0,0-.264-2.422,1.8,1.8,0,0,0-1.091-.862q-.368-.138-.964-.3-1.331-.367-1.332-1.217a1.239,1.239,0,0,1,.471-.976,8,8,0,0,1,2.147-1,32.05,32.05,0,0,1,3.215-.884,12.344,12.344,0,0,1,2.48-.333,1.119,1.119,0,0,1,1.022.448,3.1,3.1,0,0,1,.287,1.573q0,.253-.045,1.331-.276,5.1-.276,9.873,0,2.986.046,4.03a14.207,14.207,0,0,0,.138,1.6,2,2,0,0,0,1.4,1.47h.023c.092.031.237.078.436.138q1.355.459,1.355,1.263a1.245,1.245,0,0,1-.425.93,4.78,4.78,0,0,1-1.459.815,28.638,28.638,0,0,1-3.41,1.1,11.149,11.149,0,0,1-2.514.414,1.278,1.278,0,0,1-1.011-.367A1.713,1.713,0,0,1,74.776,1143.114Z" transform="translate(-31.974 -1118.839)" fill="#2a5172"/>
      <path id="Path_458" data-name="Path 458" d="M101.3,1121.347v1.171a2.1,2.1,0,0,0,.035.447c.023.1.057.157.1.172a4.165,4.165,0,0,0,.942-.643l.918-.689a12.467,12.467,0,0,1,2.859-1.631,7.625,7.625,0,0,1,2.767-.527,9.188,9.188,0,0,1,7.279,3.261,12.445,12.445,0,0,1,2.824,8.449,13.961,13.961,0,0,1-3.18,9.438,10.163,10.163,0,0,1-8.048,3.7,11.065,11.065,0,0,1-5.4-1.517,2.581,2.581,0,0,0-.528-.23q-.3,0-.436.678a12.659,12.659,0,0,0-.138,2.239,14.621,14.621,0,0,0,.161,2.376,2.781,2.781,0,0,0,.459,1.3,3.169,3.169,0,0,0,1.355.62q.62.183.942.3a1.305,1.305,0,0,1,.516.459,1.231,1.231,0,0,1,.2.689q0,.872-1.4,1.25a20.781,20.781,0,0,1-4.8.38,18.055,18.055,0,0,1-4.672-.39q-1.206-.391-1.206-1.4,0-.781,1.022-1.206a5.919,5.919,0,0,0,1.228-.609,4.328,4.328,0,0,0,.666-2.365q.183-1.883.184-7.853v-3.9q0-6.5-.219-8.38t-.769-2.2a7.962,7.962,0,0,0-1.1-.414q-1.447-.459-1.447-1.262a1.309,1.309,0,0,1,.436-.987,4.034,4.034,0,0,1,1.4-.758,27.821,27.821,0,0,1,3.364-1.113,10.6,10.6,0,0,1,2.422-.4,1.173,1.173,0,0,1,.964.367A1.9,1.9,0,0,1,101.3,1121.347Zm.23,8.129v6.543a10.847,10.847,0,0,0,.114,1.952,2.278,2.278,0,0,0,.367.873,6.057,6.057,0,0,0,2.216,1.745,6.463,6.463,0,0,0,2.859.689,4.973,4.973,0,0,0,4.248-2.2,10.039,10.039,0,0,0,1.585-5.97,11.326,11.326,0,0,0-1.734-6.556,5.533,5.533,0,0,0-8.312-1.125A5.6,5.6,0,0,0,101.53,1129.476Z" transform="translate(-39.876 -1118.839)" fill="#2a5172"/>
      <path id="Path_459" data-name="Path 459" d="M136.237,1121.347v1.171a2.1,2.1,0,0,0,.035.447c.023.1.057.157.1.172a4.165,4.165,0,0,0,.942-.643l.918-.689a12.467,12.467,0,0,1,2.859-1.631,7.625,7.625,0,0,1,2.767-.527,9.188,9.188,0,0,1,7.279,3.261,12.445,12.445,0,0,1,2.824,8.449,13.961,13.961,0,0,1-3.18,9.438,10.163,10.163,0,0,1-8.048,3.7,11.065,11.065,0,0,1-5.4-1.517,2.581,2.581,0,0,0-.528-.23q-.3,0-.436.678a12.658,12.658,0,0,0-.138,2.239,14.621,14.621,0,0,0,.161,2.376,2.781,2.781,0,0,0,.459,1.3,3.169,3.169,0,0,0,1.355.62q.62.183.942.3a1.305,1.305,0,0,1,.516.459,1.231,1.231,0,0,1,.2.689q0,.872-1.4,1.25a20.781,20.781,0,0,1-4.8.38,18.055,18.055,0,0,1-4.672-.39q-1.206-.391-1.206-1.4,0-.781,1.022-1.206a5.92,5.92,0,0,0,1.228-.609,4.328,4.328,0,0,0,.666-2.365q.183-1.883.184-7.853v-3.9q0-6.5-.219-8.38t-.769-2.2a7.962,7.962,0,0,0-1.1-.414q-1.447-.459-1.447-1.262a1.309,1.309,0,0,1,.436-.987,4.034,4.034,0,0,1,1.4-.758,27.822,27.822,0,0,1,3.364-1.113,10.6,10.6,0,0,1,2.422-.4,1.173,1.173,0,0,1,.964.367A1.9,1.9,0,0,1,136.237,1121.347Zm.23,8.129v6.543a10.848,10.848,0,0,0,.114,1.952,2.278,2.278,0,0,0,.367.873,6.054,6.054,0,0,0,2.216,1.745,6.458,6.458,0,0,0,2.858.689,4.973,4.973,0,0,0,4.248-2.2,10.039,10.039,0,0,0,1.585-5.97,11.326,11.326,0,0,0-1.734-6.556,5.533,5.533,0,0,0-8.312-1.125A5.6,5.6,0,0,0,136.467,1129.476Z" transform="translate(-47.441 -1118.839)" fill="#2a5172"/>
      <path id="Path_460" data-name="Path 460" d="M184.183,1137.375a6.63,6.63,0,0,0,.23,2.02,1.123,1.123,0,0,0,.712.8c.183.061.429.131.735.207q1.515.414,1.515,1.217,0,1.148-1.608,2.078a7.34,7.34,0,0,1-3.743.93,3.265,3.265,0,0,1-2.239-1.251,12.5,12.5,0,0,0-1.251-1.252,3.2,3.2,0,0,0-1.033.528,10.911,10.911,0,0,1-5.97,1.975,7.908,7.908,0,0,1-5.649-2.031,6.967,6.967,0,0,1-2.158-5.317,7.13,7.13,0,0,1,2.778-5.981q2.779-2.148,7.762-2.147.941,0,2.055.1t2.4.311l.023-2.527a5.054,5.054,0,0,0-.918-3.248,3.172,3.172,0,0,0-2.618-1.137,4.717,4.717,0,0,0-2.181.517,6.662,6.662,0,0,0-1.952,1.6c-.123.138-.291.344-.505.62a4.011,4.011,0,0,1-3.077,1.836,1.946,1.946,0,0,1-1.5-.609,2.321,2.321,0,0,1-.562-1.642q0-2.25,2.778-3.788a14.652,14.652,0,0,1,7.142-1.539,13.28,13.28,0,0,1,4.569.7,6.559,6.559,0,0,1,2.961,2.032,5.694,5.694,0,0,1,1.011,2.388,27.743,27.743,0,0,1,.3,4.891Zm-5.465-4.754q-.942-.207-1.814-.309a14.064,14.064,0,0,0-1.653-.1,6.3,6.3,0,0,0-4.018,1.148,3.819,3.819,0,0,0-1.446,3.168,3.939,3.939,0,0,0,1.251,3.053,4.776,4.776,0,0,0,3.364,1.149,4.515,4.515,0,0,0,3.341-1.033,5.021,5.021,0,0,0,1-3.536Z" transform="translate(-55.318 -1118.839)" fill="#2a5172"/>
      <path id="Path_461" data-name="Path 461" d="M38.335,1177.616q-.092,3.147-.137,6.291t-.046,6.406q0,.8.046,1.94t.045,1.5q0,3.882-1.516,5.534t-5.028,1.653a7.626,7.626,0,0,1-3.1-.528q-1.172-.528-1.171-1.354a.993.993,0,0,1,.333-.792,1.382,1.382,0,0,1,.93-.288,8.493,8.493,0,0,1,.85.092,8.7,8.7,0,0,0,1.17.092,1.584,1.584,0,0,0,1.585-1.021,13.015,13.015,0,0,0,.436-4.237v-13.18a56.319,56.319,0,0,0-.2-5.878q-.2-1.515-.7-1.791a7.711,7.711,0,0,0-1.125-.414q-1.447-.459-1.446-1.263a1.291,1.291,0,0,1,.447-.953,4.8,4.8,0,0,1,1.481-.838,29.39,29.39,0,0,1,3.605-1.159,12.244,12.244,0,0,1,2.549-.449,1.013,1.013,0,0,1,.928.459,3.118,3.118,0,0,1,.288,1.563q0,.872-.012,1.423t-.034,1.079Zm-7.049-17.773a2.955,2.955,0,0,1,1.125-2.318,4.053,4.053,0,0,1,2.733-.964,3.836,3.836,0,0,1,2.583.873,2.752,2.752,0,0,1,1.022,2.18,2.794,2.794,0,0,1-1.114,2.228,4.241,4.241,0,0,1-2.79.918,3.893,3.893,0,0,1-2.549-.827A2.587,2.587,0,0,1,31.286,1159.843Z" transform="translate(-25.802 -1126.833)" fill="#2a5172"/>
      <path id="Path_462" data-name="Path 462" d="M58.15,1194.8a11.42,11.42,0,0,1-8.565-3.514,13.164,13.164,0,0,1,.173-17.841,12.11,12.11,0,0,1,8.943-3.583,11.351,11.351,0,0,1,8.461,3.353,11.736,11.736,0,0,1,3.294,8.587,12.946,12.946,0,0,1-3.535,9.278A11.619,11.619,0,0,1,58.15,1194.8Zm-5.878-14.49a14.642,14.642,0,0,0,2.009,7.945q2.008,3.192,4.9,3.192a4.512,4.512,0,0,0,3.8-1.975,8.567,8.567,0,0,0,1.459-5.212,14.328,14.328,0,0,0-2.032-7.865q-2.033-3.179-4.878-3.179a4.53,4.53,0,0,0-3.811,1.94A8.418,8.418,0,0,0,52.272,1180.313Z" transform="translate(-29.865 -1129.714)" fill="#2a5172"/>
      <path id="Path_463" data-name="Path 463" d="M88.959,1182.012h-.321a3.362,3.362,0,0,0-1.585.207q-.253.208-.252,1.1a7.311,7.311,0,0,0,7.325,7.278,8.2,8.2,0,0,0,2.525-.39,8.821,8.821,0,0,0,2.365-1.194q.321-.229.873-.666a3.463,3.463,0,0,1,1.86-.987,1.182,1.182,0,0,1,.872.345,1.127,1.127,0,0,1,.345.827,2.624,2.624,0,0,1-.6,1.412,8.283,8.283,0,0,1-1.608,1.642,14.875,14.875,0,0,1-4.018,2.468,11.539,11.539,0,0,1-4.2.748,11.423,11.423,0,0,1-8.507-3.48,11.826,11.826,0,0,1-3.41-8.622,12.708,12.708,0,0,1,3.5-9.219,11.936,11.936,0,0,1,8.966-3.617,10.034,10.034,0,0,1,7.313,2.629,9.469,9.469,0,0,1,2.7,7.107,3.009,3.009,0,0,1-.437,1.941q-.436.47-2.227.469Zm-.482-2.732h7.761a2.644,2.644,0,0,0,1.217-.183.772.772,0,0,0,.3-.712,5.329,5.329,0,0,0-1.55-3.891,5.268,5.268,0,0,0-3.915-1.573,4.972,4.972,0,0,0-3.766,1.573,5.436,5.436,0,0,0-1.492,3.891.8.8,0,0,0,.276.712A2.411,2.411,0,0,0,88.477,1179.28Z" transform="translate(-37.322 -1129.714)" fill="#2a5172"/>
      <path id="Path_464" data-name="Path 464" d="M128.416,1188.115q-3.927,9.942-6.475,12.939a7.705,7.705,0,0,1-6.039,3,4.283,4.283,0,0,1-2.893-.986,3.161,3.161,0,0,1-1.149-2.5,2.846,2.846,0,0,1,.838-2.055,2.9,2.9,0,0,1,3.077-.677,1.948,1.948,0,0,1,.747.528c.168.214.382.513.643.9q.619.941,1.079.942,1.217,0,2.469-1.757a6.19,6.19,0,0,0,1.251-3.638,15.949,15.949,0,0,0-1.677-5.834c-.107-.26-.191-.451-.252-.573q-2.044-4.547-3.823-8.4t-2.193-4.661a3.36,3.36,0,0,0-1.814-1.446l-.023-.023a2.87,2.87,0,0,1-1.113-.654,1.237,1.237,0,0,1-.288-.838q0-1.055,1.264-1.47a17.941,17.941,0,0,1,4.753-.413,18.274,18.274,0,0,1,4.661.379q1.17.378,1.171,1.344a1.662,1.662,0,0,1-.149.723,1.068,1.068,0,0,1-.425.47,8.915,8.915,0,0,1-.872.39q-.919.368-.919.781a6.613,6.613,0,0,0,.483,1.779q.482,1.322,1.929,4.811,1.377,3.307,2,4.466t.964,1.159q.23,0,.781-1.136t1.561-3.755q1.217-3.075,1.767-4.764a9.244,9.244,0,0,0,.552-2.284q0-.69-1.344-1.447t-1.344-1.376q0-.829,1.091-1.183a13.855,13.855,0,0,1,3.8-.357,12.978,12.978,0,0,1,3.88.379,1.361,1.361,0,0,1,1.01,1.344q0,.872-1.354,1.217a4.936,4.936,0,0,0-.988.344q-1.355.736-2.892,4.8-.437,1.2-.689,1.837Z" transform="translate(-43.853 -1129.848)" fill="#2a5172"/>
    </g>
    <g id="Group_118" data-name="Group 118" transform="translate(-38.819 1100.396)">
      <path id="Path_465" data-name="Path 465" d="M9.262,1110.531c-.939,1.235-8.7,3.818-14.6,2.724,5.291.137,12.5-1.637,13.8-2.883,3.09-2.956-11.929-8.488-23.8-9.618-10.363-.986-17.524.033-21.679,3.471,0,0-1.4,2.274-1.75,6.993a22.789,22.789,0,0,0,.927,7.878,2.979,2.979,0,0,0,1.6,1.6,30.373,30.373,0,0,0,.908,10.077,20.606,20.606,0,0,0,4.629,8.739,14.522,14.522,0,0,0,4.877,3.45,15.685,15.685,0,0,0,6.227,1.221l.252,0a16.577,16.577,0,0,0,8.446-2.27,16.322,16.322,0,0,0,5.287-5.223,21,21,0,0,0,1.72-3.3c.429.422,1.34.852,1.493.523.175-.374-.7-1.045-.455-1.835.474-1.554,5.86-3.5,6-9.831A3.142,3.142,0,0,0,.6,1118.911a3.474,3.474,0,0,0-2.472.756c.038-1.542.068-2.921.086-3.773.37-.016.735-.038,1.092-.069,3.995-.334,10.839-1.786,11.94-3.749C11.739,1111.2,9.867,1110.647,9.262,1110.531Zm-46.6,4.208a.38.38,0,0,1,.136-.008,14.321,14.321,0,0,0,2.885-.065.356.356,0,0,1,.4.3.353.353,0,0,1-.3.4c-.259.035-.671.072-1.126.1a11.883,11.883,0,0,1-1.919-.027C-37.293,1115.194-37.316,1114.959-37.334,1114.739Zm.2,1.673a.213.213,0,0,1,.044,0,14.681,14.681,0,0,0,4.127-.212.356.356,0,0,1,.425.266.354.354,0,0,1-.267.424,13.539,13.539,0,0,1-2.162.266,14.711,14.711,0,0,1-2.048-.029C-37.057,1116.884-37.1,1116.646-37.133,1116.412Zm.432,2.317c-.054-.218-.107-.436-.157-.658a.343.343,0,0,1,.2-.049,28.206,28.206,0,0,0,6.061-.376.352.352,0,0,1,.412.284.354.354,0,0,1-.284.412,27.733,27.733,0,0,1-2.9.346A23.851,23.851,0,0,1-36.7,1118.729Zm32.769,6.477a21.635,21.635,0,0,1-3.059,10.117,38.654,38.654,0,0,1-5.141.294.361.361,0,0,0-.363.345.354.354,0,0,0,.345.363c.149,0,.31,0,.481,0,1.181,0,2.839-.082,4.166-.229-.175.252-.357.5-.548.743a37.508,37.508,0,0,1-7.476.133.353.353,0,0,0-.4.295.352.352,0,0,0,.295.4,38.394,38.394,0,0,0,6.932-.055q-.309.345-.642.673a43.026,43.026,0,0,1-8.081.085.356.356,0,0,0-.405.294.354.354,0,0,0,.295.405,30.745,30.745,0,0,0,3.591.157c1.206,0,2.529-.04,3.712-.14-.244.2-.494.4-.755.583a37.035,37.035,0,0,1-8.4.1.355.355,0,0,0-.4.295.354.354,0,0,0,.295.405,32.683,32.683,0,0,0,3.994.2c1.017,0,2.1-.033,3.1-.118q-.522.282-1.083.523a24.15,24.15,0,0,1-4.224.056.354.354,0,0,0-.4.3.353.353,0,0,0,.3.4,12.771,12.771,0,0,0,1.592.078h.1a16.5,16.5,0,0,1-3.261.359,12.834,12.834,0,0,1-9.947-4.068c-3.624-3.866-5.548-10.528-5.028-17.4a57.872,57.872,0,0,0,9.828-1.9,68.069,68.069,0,0,0,9.984-4.337c.175.255,5.658,1.3,10.862,1.346C-3.721,1117.832-3.817,1122.182-3.932,1125.205Zm3.766-2.595c.774-.01.87.628.838,1.355-.072,1.642-1.992,3.344-3.037,4.21a21.164,21.164,0,0,0,.329-2.9c.013-.33.025-.677.037-1.032C-1.545,1123.5-.781,1122.619-.166,1122.611Z" transform="translate(38.819 -1100.396)" fill="#2a5172"/>
      <path id="Path_466" data-name="Path 466" d="M-26.583,1131.029c-.006-.268-1.1-.692-2.274-.692h-.072c-.3,0-1.26.059-1.256.568.011,1.656.836,7.032,2.719,9.9a5.409,5.409,0,0,0,4.173,2.625.444.444,0,0,0,.314-.421,5.368,5.368,0,0,0-.471-.682,12,12,0,0,1-1.589-2.595A34.547,34.547,0,0,1-26.583,1131.029Z" transform="translate(36.95 -1106.88)" fill="#2a5172"/>
    </g>
  </g>
</svg>
