<svg xmlns="http://www.w3.org/2000/svg" width="288.02" height="60" viewBox="0 0 288.02 60">
  <path id="Path_446" data-name="Path 446" d="M88.3,856.768a12.745,12.745,0,0,1,3.646-9.318,12.247,12.247,0,0,1,9.1-3.7,11.073,11.073,0,0,1,6.79,2.085,6.012,6.012,0,0,1,2.807,4.881,2.364,2.364,0,0,1-.78,1.829,2.849,2.849,0,0,1-1.992.71,3.129,3.129,0,0,1-1.98-.582,6.709,6.709,0,0,1-1.584-2.562,5.945,5.945,0,0,0-1.7-2.434,3.985,3.985,0,0,0-2.423-.688,5.187,5.187,0,0,0-4.391,2.086,9.513,9.513,0,0,0-1.572,5.835,10.767,10.767,0,0,0,2.237,7.059,7.083,7.083,0,0,0,5.73,2.725,7.9,7.9,0,0,0,2.294-.326,7.4,7.4,0,0,0,2.015-.955q.327-.234.932-.7a3.756,3.756,0,0,1,2.027-1.024,1.006,1.006,0,0,1,1.094,1.094,3.028,3.028,0,0,1-.512,1.467,6.152,6.152,0,0,1-1.305,1.538,13.241,13.241,0,0,1-3.972,2.469,12.406,12.406,0,0,1-4.484.792,11.43,11.43,0,0,1-8.537-3.53A12.042,12.042,0,0,1,88.3,856.768ZM131,867.553v-1.723c0-.062-.011-.1-.034-.116a.191.191,0,0,0-.1-.023q-.28,0-.862.6c-.14.156-.249.272-.326.35a7.351,7.351,0,0,1-2.609,1.77A8.763,8.763,0,0,1,123.8,869a8.6,8.6,0,0,1-3.436-.687,7.177,7.177,0,0,1-2.667-1.946,8.147,8.147,0,0,1-1.619-3.331,35.559,35.559,0,0,1-.478-7.175q0-.489.024-1.629t.023-1.794v-.49a7.019,7.019,0,0,0-.28-2.551,2,2,0,0,0-1.164-.874,9.24,9.24,0,0,0-.955-.3q-1.375-.371-1.374-1.234a1.268,1.268,0,0,1,.49-1.013,8.037,8.037,0,0,1,2.19-.99,31.325,31.325,0,0,1,3.284-.9,12.981,12.981,0,0,1,2.585-.339,1.014,1.014,0,0,1,.943.489,3.182,3.182,0,0,1,.292,1.562c0,.094-.016.412-.047.955q-.233,4.472-.233,9.061,0,4.962,1.025,6.849a3.647,3.647,0,0,0,3.494,1.887,4.123,4.123,0,0,0,3.995-2.446q1.2-2.446,1.2-8.386v-1.865a7.039,7.039,0,0,0-.268-2.457,1.82,1.82,0,0,0-1.106-.874c-.249-.093-.575-.193-.979-.3q-1.351-.371-1.35-1.234a1.257,1.257,0,0,1,.478-.99,8.119,8.119,0,0,1,2.178-1.013,32.113,32.113,0,0,1,3.261-.9,12.531,12.531,0,0,1,2.516-.339,1.138,1.138,0,0,1,1.037.455,3.144,3.144,0,0,1,.291,1.6q0,.256-.047,1.351-.279,5.171-.279,10.016,0,3.028.046,4.088a14.437,14.437,0,0,0,.14,1.619,2.033,2.033,0,0,0,1.421,1.491h.023c.094.032.241.078.443.14q1.375.466,1.374,1.281a1.26,1.26,0,0,1-.431.943,4.822,4.822,0,0,1-1.479.827,29.186,29.186,0,0,1-3.459,1.119,11.367,11.367,0,0,1-2.551.42,1.291,1.291,0,0,1-1.024-.374A1.736,1.736,0,0,1,131,867.553Zm18.892-22.083v1.188a2.147,2.147,0,0,0,.035.455c.023.1.058.159.1.174a4.231,4.231,0,0,0,.955-.652l.932-.7a12.6,12.6,0,0,1,2.9-1.655,7.73,7.73,0,0,1,2.806-.536,9.321,9.321,0,0,1,7.384,3.308,12.628,12.628,0,0,1,2.865,8.573,14.161,14.161,0,0,1-3.226,9.574,10.307,10.307,0,0,1-8.165,3.751,11.218,11.218,0,0,1-5.474-1.538,2.564,2.564,0,0,0-.536-.233q-.3,0-.442.688a12.83,12.83,0,0,0-.14,2.271,14.84,14.84,0,0,0,.163,2.411,2.822,2.822,0,0,0,.466,1.317,3.224,3.224,0,0,0,1.375.629q.628.186.955.3a1.317,1.317,0,0,1,.524.466,1.245,1.245,0,0,1,.2.7q0,.886-1.42,1.269a21.153,21.153,0,0,1-4.869.385,18.326,18.326,0,0,1-4.74-.4q-1.223-.4-1.223-1.421,0-.793,1.037-1.223a5.971,5.971,0,0,0,1.245-.617,4.382,4.382,0,0,0,.676-2.4q.185-1.909.186-7.966v-3.96q0-6.593-.221-8.5t-.78-2.236a8.206,8.206,0,0,0-1.118-.42q-1.468-.465-1.468-1.28a1.334,1.334,0,0,1,.443-1,4.107,4.107,0,0,1,1.421-.769,28.118,28.118,0,0,1,3.413-1.129,10.764,10.764,0,0,1,2.458-.409,1.189,1.189,0,0,1,.978.373A1.926,1.926,0,0,1,149.893,845.47Zm.233,8.247v6.639a11,11,0,0,0,.116,1.98,2.311,2.311,0,0,0,.373.885,6.14,6.14,0,0,0,2.248,1.772,6.554,6.554,0,0,0,2.9.7,5.048,5.048,0,0,0,4.309-2.237,10.184,10.184,0,0,0,1.607-6.056,11.489,11.489,0,0,0-1.759-6.651,5.614,5.614,0,0,0-8.433-1.142A5.689,5.689,0,0,0,150.126,853.717Zm27.535-8.247v1.188a2.147,2.147,0,0,0,.035.455c.023.1.058.159.1.174a4.232,4.232,0,0,0,.955-.652l.932-.7a12.6,12.6,0,0,1,2.9-1.655,7.73,7.73,0,0,1,2.806-.536,9.321,9.321,0,0,1,7.384,3.308,12.628,12.628,0,0,1,2.865,8.573,14.161,14.161,0,0,1-3.226,9.574,10.307,10.307,0,0,1-8.165,3.751,11.218,11.218,0,0,1-5.474-1.538,2.564,2.564,0,0,0-.536-.233q-.3,0-.442.688a12.83,12.83,0,0,0-.14,2.271,14.841,14.841,0,0,0,.163,2.411,2.822,2.822,0,0,0,.466,1.317,3.224,3.224,0,0,0,1.375.629q.628.186.955.3a1.318,1.318,0,0,1,.524.466,1.245,1.245,0,0,1,.2.7q0,.886-1.42,1.269a21.153,21.153,0,0,1-4.869.385,18.326,18.326,0,0,1-4.74-.4q-1.223-.4-1.223-1.421,0-.793,1.037-1.223a5.972,5.972,0,0,0,1.245-.617,4.382,4.382,0,0,0,.676-2.4q.185-1.909.186-7.966v-3.96q0-6.593-.221-8.5t-.78-2.236a8.206,8.206,0,0,0-1.118-.42q-1.468-.465-1.468-1.28a1.334,1.334,0,0,1,.443-1,4.107,4.107,0,0,1,1.421-.769,28.118,28.118,0,0,1,3.413-1.129,10.764,10.764,0,0,1,2.458-.409,1.189,1.189,0,0,1,.978.373A1.926,1.926,0,0,1,177.661,845.47Zm.233,8.247v6.639a11,11,0,0,0,.116,1.98,2.311,2.311,0,0,0,.373.885,6.14,6.14,0,0,0,2.248,1.772,6.554,6.554,0,0,0,2.9.7,5.048,5.048,0,0,0,4.309-2.237,10.184,10.184,0,0,0,1.607-6.056,11.489,11.489,0,0,0-1.759-6.651,5.614,5.614,0,0,0-8.433-1.142A5.689,5.689,0,0,0,177.894,853.717Zm40.417,8.013a6.694,6.694,0,0,0,.233,2.049,1.14,1.14,0,0,0,.722.816c.187.062.435.133.746.209q1.538.421,1.537,1.235,0,1.165-1.63,2.108a7.449,7.449,0,0,1-3.8.944,3.308,3.308,0,0,1-2.272-1.27,12.92,12.92,0,0,0-1.269-1.269,3.231,3.231,0,0,0-1.048.535,11.065,11.065,0,0,1-6.056,2,8.018,8.018,0,0,1-5.73-2.062,7.066,7.066,0,0,1-2.19-5.393,7.231,7.231,0,0,1,2.819-6.068q2.818-2.178,7.873-2.178.955,0,2.085.1t2.434.315l.023-2.562a5.13,5.13,0,0,0-.932-3.3A3.217,3.217,0,0,0,209.2,846.8a4.8,4.8,0,0,0-2.213.524,6.78,6.78,0,0,0-1.98,1.619q-.187.21-.512.63a4.069,4.069,0,0,1-3.122,1.863,1.975,1.975,0,0,1-1.525-.617,2.353,2.353,0,0,1-.571-1.666q0-2.283,2.819-3.844a14.869,14.869,0,0,1,7.245-1.561,13.468,13.468,0,0,1,4.635.711,6.65,6.65,0,0,1,3.005,2.062,5.782,5.782,0,0,1,1.024,2.422,28.127,28.127,0,0,1,.3,4.963Zm-5.545-4.822q-.955-.21-1.84-.315a14.3,14.3,0,0,0-1.678-.1,6.4,6.4,0,0,0-4.077,1.165,3.877,3.877,0,0,0-1.467,3.214,4,4,0,0,0,1.269,3.1,4.849,4.849,0,0,0,3.413,1.166,4.577,4.577,0,0,0,3.389-1.049,5.094,5.094,0,0,0,1.013-3.588Zm19.335-2.376q-.093,3.192-.14,6.382t-.047,6.5q0,.815.047,1.968t.046,1.526q0,3.938-1.538,5.614t-5.1,1.677a7.75,7.75,0,0,1-3.145-.536q-1.187-.535-1.187-1.374a1,1,0,0,1,.338-.8,1.4,1.4,0,0,1,.943-.292,8.645,8.645,0,0,1,.862.093,8.843,8.843,0,0,0,1.188.093,1.606,1.606,0,0,0,1.607-1.036,13.19,13.19,0,0,0,.443-4.3V856.675a57.133,57.133,0,0,0-.2-5.963q-.2-1.537-.711-1.817a7.947,7.947,0,0,0-1.141-.42q-1.468-.465-1.468-1.28a1.31,1.31,0,0,1,.455-.967,4.883,4.883,0,0,1,1.5-.85,29.741,29.741,0,0,1,3.658-1.176,12.422,12.422,0,0,1,2.586-.455,1.026,1.026,0,0,1,.942.466,3.151,3.151,0,0,1,.292,1.585q0,.886-.013,1.444c-.008.372-.018.737-.034,1.094ZM224.95,836.5a3,3,0,0,1,1.141-2.352,4.111,4.111,0,0,1,2.771-.978,3.89,3.89,0,0,1,2.62.885,2.791,2.791,0,0,1,1.037,2.212,2.836,2.836,0,0,1-1.13,2.26,4.3,4.3,0,0,1-2.829.931,3.951,3.951,0,0,1-2.586-.839A2.624,2.624,0,0,1,224.95,836.5Zm23.132,32.543a11.586,11.586,0,0,1-8.69-3.564,13.357,13.357,0,0,1,.176-18.1,12.286,12.286,0,0,1,9.073-3.635,11.514,11.514,0,0,1,8.584,3.4,11.9,11.9,0,0,1,3.343,8.711,13.13,13.13,0,0,1-3.587,9.412A11.787,11.787,0,0,1,248.081,869.044Zm-5.963-14.7a14.855,14.855,0,0,0,2.039,8.06q2.038,3.238,4.973,3.238a4.58,4.58,0,0,0,3.855-2,8.69,8.69,0,0,0,1.479-5.288,14.528,14.528,0,0,0-2.062-7.979q-2.061-3.225-4.949-3.225a4.6,4.6,0,0,0-3.867,1.968A8.538,8.538,0,0,0,242.118,854.346Zm29.653,1.723h-.326a3.4,3.4,0,0,0-1.607.21c-.171.141-.257.513-.257,1.119a7.416,7.416,0,0,0,7.431,7.384,8.325,8.325,0,0,0,2.562-.4,8.931,8.931,0,0,0,2.4-1.211q.327-.234.885-.676a3.513,3.513,0,0,1,1.887-1,1.2,1.2,0,0,1,.885.35,1.142,1.142,0,0,1,.349.838,2.662,2.662,0,0,1-.606,1.433,8.4,8.4,0,0,1-1.63,1.666,15.137,15.137,0,0,1-4.077,2.5,11.715,11.715,0,0,1-4.263.757,11.589,11.589,0,0,1-8.63-3.53,12,12,0,0,1-3.459-8.747,12.894,12.894,0,0,1,3.552-9.353,12.11,12.11,0,0,1,9.1-3.669,10.177,10.177,0,0,1,7.419,2.667,9.607,9.607,0,0,1,2.737,7.21,3.052,3.052,0,0,1-.444,1.969q-.442.477-2.259.476Zm-.489-2.771h7.873a2.669,2.669,0,0,0,1.235-.187.782.782,0,0,0,.3-.722,5.4,5.4,0,0,0-1.573-3.947,5.344,5.344,0,0,0-3.972-1.6,5.042,5.042,0,0,0-3.82,1.6,5.51,5.51,0,0,0-1.515,3.947.808.808,0,0,0,.28.722A2.434,2.434,0,0,0,271.282,853.3Zm33.893,8.829q-3.984,10.086-6.57,13.127a7.816,7.816,0,0,1-6.126,3.039,4.339,4.339,0,0,1-2.934-1,3.2,3.2,0,0,1-1.165-2.539,2.884,2.884,0,0,1,.85-2.085,2.938,2.938,0,0,1,3.122-.687,1.973,1.973,0,0,1,.757.536q.256.325.653.908.629.955,1.094.955,1.235,0,2.505-1.782a6.284,6.284,0,0,0,1.268-3.691,16.187,16.187,0,0,0-1.7-5.918q-.163-.4-.257-.582-2.073-4.613-3.879-8.526t-2.224-4.729a3.412,3.412,0,0,0-1.841-1.468l-.023-.023a2.927,2.927,0,0,1-1.129-.664,1.256,1.256,0,0,1-.292-.85q0-1.072,1.281-1.492a18.162,18.162,0,0,1,4.822-.42,18.53,18.53,0,0,1,4.729.385q1.187.384,1.188,1.363a1.689,1.689,0,0,1-.152.734,1.083,1.083,0,0,1-.432.477,9.057,9.057,0,0,1-.885.4q-.932.373-.932.792a6.7,6.7,0,0,0,.49,1.806q.49,1.341,1.957,4.88,1.4,3.356,2.027,4.532t.978,1.176q.232,0,.792-1.152t1.583-3.809q1.235-3.12,1.794-4.833a9.413,9.413,0,0,0,.559-2.318q0-.7-1.363-1.468t-1.363-1.4q0-.839,1.107-1.2a14.045,14.045,0,0,1,3.855-.362,13.152,13.152,0,0,1,3.937.385,1.381,1.381,0,0,1,1.025,1.363q0,.885-1.374,1.233a5.047,5.047,0,0,0-1,.35q-1.375.746-2.934,4.869-.443,1.211-.7,1.864ZM84.81,833.682c-1.142,1.5-10.594,4.649-17.78,3.317,6.442.167,15.218-1.994,16.8-3.511,3.762-3.6-14.526-10.335-28.985-11.711-12.62-1.2-21.338.039-26.4,4.226,0,0-1.71,2.768-2.132,8.515a27.765,27.765,0,0,0,1.129,9.592,3.626,3.626,0,0,0,1.949,1.943,36.96,36.96,0,0,0,1.106,12.27,25.1,25.1,0,0,0,5.635,10.642,17.686,17.686,0,0,0,5.939,4.2,19.1,19.1,0,0,0,7.582,1.486l.308,0a20.2,20.2,0,0,0,10.284-2.763,19.882,19.882,0,0,0,6.439-6.361,25.665,25.665,0,0,0,2.094-4.012c.521.514,1.631,1.037,1.818.637.211-.454-.848-1.272-.556-2.233.578-1.892,7.136-4.259,7.31-11.971a3.827,3.827,0,0,0-3.089-4.06,4.235,4.235,0,0,0-3.01.92c.046-1.877.083-3.555.1-4.594.45-.02.895-.047,1.33-.083,4.863-.408,13.2-2.175,14.538-4.565C87.827,834.5,85.547,833.821,84.81,833.682Zm-56.738,5.124a.425.425,0,0,1,.165-.01,17.351,17.351,0,0,0,3.511-.079.431.431,0,1,1,.116.854c-.316.043-.817.087-1.371.116a14.448,14.448,0,0,1-2.337-.033C28.122,839.358,28.094,839.073,28.072,838.806Zm.246,2.036a.375.375,0,0,1,.053-.006,17.874,17.874,0,0,0,5.025-.258.431.431,0,1,1,.192.84,16.513,16.513,0,0,1-2.633.324,17.96,17.96,0,0,1-2.494-.035C28.409,841.416,28.361,841.126,28.318,840.842Zm.526,2.821q-.1-.4-.192-.8a.417.417,0,0,1,.242-.06,34.33,34.33,0,0,0,7.38-.457.431.431,0,1,1,.156.847,33.374,33.374,0,0,1-3.527.421A29.029,29.029,0,0,1,28.844,843.663Zm39.9,7.886a26.335,26.335,0,0,1-3.725,12.318,47.083,47.083,0,0,1-6.26.358.439.439,0,0,0-.441.421.43.43,0,0,0,.42.441c.181,0,.378.006.586.006,1.438,0,3.457-.1,5.072-.279q-.321.46-.668.9a45.538,45.538,0,0,1-9.1.161.431.431,0,0,0-.134.852,46.811,46.811,0,0,0,8.441-.068q-.377.42-.782.819a52.334,52.334,0,0,1-9.84.1.431.431,0,1,0-.134.852,37.337,37.337,0,0,0,4.372.191c1.468,0,3.079-.049,4.52-.171-.3.246-.6.483-.92.711a45.126,45.126,0,0,1-10.228.127.431.431,0,1,0-.134.852,39.631,39.631,0,0,0,4.863.243c1.237,0,2.553-.041,3.775-.144q-.635.343-1.318.637a29.46,29.46,0,0,1-5.143.068.431.431,0,0,0-.116.854,15.591,15.591,0,0,0,1.939.095l.118,0a20.134,20.134,0,0,1-3.971.436,15.627,15.627,0,0,1-12.111-4.953c-4.414-4.708-6.757-12.819-6.123-21.187a70.418,70.418,0,0,0,11.966-2.308,82.887,82.887,0,0,0,12.157-5.281c.213.311,6.89,1.578,13.225,1.638C69,842.571,68.884,847.868,68.745,851.549Zm4.586-3.159c.943-.012,1.059.764,1.021,1.651-.088,2-2.425,4.071-3.7,5.126a25.681,25.681,0,0,0,.4-3.531c.015-.4.03-.824.045-1.258C71.651,849.469,72.582,848.4,73.331,848.389Zm-34.444,2.355c-.008-.326-1.34-.843-2.769-.843H36.03c-.359.006-1.533.071-1.529.691.014,2.016,1.018,8.562,3.31,12.054a6.589,6.589,0,0,0,5.081,3.2.541.541,0,0,0,.383-.512,6.507,6.507,0,0,0-.574-.83,14.618,14.618,0,0,1-1.935-3.16A42.028,42.028,0,0,1,38.887,850.744Z" transform="translate(-26.264 -821.34)" fill="#D5DBE6"/>
</svg>
