<svg xmlns="http://www.w3.org/2000/svg" viewBox="0 0 75.67 65.86"><g id="Layer_2" data-name="Layer 2"><g id="Layer_1-2" data-name="Layer 1"><path fill="#D5DBE6" d="M75.55,17.67c.73-1.31-2.09-2.1-3-2.32s-2.24-.25-1.83-.68c4.45-4.62-17.28-12.29-35.09-14C20.1-.8,8.44-.21,3.13,5.89,1.35,7.93.59,9.3.07,16.38A26,26,0,0,0,1.89,28.2C3,30.44,5.42,30.81,7.15,30.77c3.55-.08,10-1.42,14.73-2.84a98.27,98.27,0,0,0,14.37-6.19,1.58,1.58,0,0,1,1.13-.11,71.38,71.38,0,0,0,12.2,1.68c1.28.07,3.72.19,6.42.09h0c.55,0,1.1-.06,1.64-.11C63.63,22.79,73.9,20.61,75.55,17.67Z"/><path fill="#D5DBE6" d="M58.21,30a5,5,0,0,0-3.51,1.07c0-1.64.08-3.15.1-4.32a.64.64,0,0,0-.66-.65c-2.2.05-4.13-.05-5.2-.1a81,81,0,0,1-11.89-1.72.53.53,0,0,0-.35.05,110.9,110.9,0,0,1-13.93,6c-6.68,2.15-14,3.05-16.32,2.58a.41.41,0,0,0-.52.38A42.81,42.81,0,0,0,7.26,46.85a29.29,29.29,0,0,0,6.56,12.39,20.61,20.61,0,0,0,6.92,4.89,22.35,22.35,0,0,0,8.82,1.73h.36a23.52,23.52,0,0,0,12-3.21,23.15,23.15,0,0,0,7.5-7.41,30.08,30.08,0,0,0,2.43-4.67c1.57-3.88,9.78-6.81,10-15.79C61.87,31.93,59.76,30.11,58.21,30Zm.09,7.17c-.1,2.33-2.82,4.74-4.3,6a29,29,0,0,0,.46-4.11q0-.7.06-1.47c.64-1.06,1.72-2.3,2.6-2.31C58.21,35.27,58.35,36.18,58.3,37.21Z"/></g></g></svg>